<svg width="281" height="55" viewBox="0 0 281 55" fill="none" xmlns="http://www.w3.org/2000/svg">
<path d="M48.1694 0.803952C47.8608 0.62592 47.493 0.57519 47.1464 0.662861C46.7999 0.750533 46.5028 0.969467 46.3202 1.27175L36.6488 17.3632C36.5992 17.4466 36.5592 17.5352 36.5294 17.6273C35.4473 18.0213 34.4373 18.5849 33.5386 19.296C30.6082 14.4065 25.2389 11.3277 19.3731 11.3277C10.322 11.3277 2.95955 18.5484 2.93432 27.4318H0.800781L0.99155 28.9241C2.1017 37.5971 7.54786 45.1726 15.3786 49.1616V54.2827H35.5842C38.1454 54.2827 40.2291 52.2344 40.2291 49.7183V49.1623C48.0623 45.1714 53.506 37.5959 54.6186 28.9241L54.8094 27.4306H50.9565C50.9386 22.8964 47.978 19.0416 43.8599 17.5862L55.9263 6.18186C56.4629 5.67478 56.4802 4.83467 55.962 4.30763C55.8392 4.18216 55.6925 4.08167 55.5302 4.0119C55.3678 3.94214 55.1931 3.90447 55.0159 3.90104C54.8388 3.89762 54.6627 3.92851 54.4977 3.99195C54.3327 4.05539 54.182 4.15013 54.0543 4.27077L40.6131 16.9764C40.4925 16.9715 40.3725 16.9582 40.25 16.9582C40.1725 16.9582 40.098 16.9691 40.0217 16.9703L48.6457 2.62016C48.7359 2.47019 48.7951 2.30425 48.8199 2.13181C48.8448 1.95937 48.8348 1.78381 48.7906 1.61516C48.7464 1.4465 48.6687 1.28806 48.5621 1.14887C48.4556 1.00968 48.3221 0.892478 48.1694 0.803952ZM19.3725 13.9804C24.5399 13.9804 29.25 16.8374 31.5928 21.3135C30.7387 22.4673 30.1331 23.78 29.8131 25.1714C28.7392 20.4764 24.4697 16.957 19.3725 16.957C13.4851 16.957 8.69555 21.652 8.67032 27.4312H5.63524C5.65986 20.011 11.8112 13.9804 19.3725 13.9804ZM19.3725 22.5936C16.6463 22.5936 14.4279 24.7604 14.4026 27.4312H11.3719C11.3971 23.1146 14.9743 19.6103 19.3725 19.6103C23.7719 19.6103 27.3528 23.1146 27.3755 27.4312H24.3411C24.3171 24.7604 22.0986 22.5936 19.3725 22.5936ZM21.6383 27.4318H17.1066C17.1187 26.8488 17.3627 26.2936 17.7865 25.8851C18.2102 25.4766 18.78 25.2473 19.3737 25.2463C19.9672 25.2475 20.5366 25.4769 20.9599 25.8854C21.3832 26.2939 21.6267 26.8491 21.6383 27.4318ZM51.6974 30.0845C50.1965 37.793 44.874 44.3646 37.4974 47.5123H33.1743V50.1656H37.4685C37.3674 50.5819 37.1266 50.9526 36.7849 51.2183C36.4433 51.4839 36.0205 51.6289 35.5848 51.63H18.0802V50.1656H23.1442V47.5123H18.1128C10.7362 44.3664 5.41309 37.793 3.91094 30.0845H51.6974ZM37.9848 27.4318C37.9967 26.849 38.2404 26.294 38.6638 25.8855C39.0872 25.4771 39.6565 25.2476 40.25 25.2463C40.844 25.2468 41.4142 25.4759 41.8382 25.8845C42.2623 26.293 42.5064 26.8485 42.5183 27.4318H37.9848ZM40.25 19.6109C44.6512 19.6109 48.2334 23.1152 48.2568 27.4318H45.2205C45.1959 24.761 42.9768 22.5942 40.25 22.5942C37.5239 22.5942 35.3072 24.761 35.2826 27.4318H32.2494C32.274 23.1152 35.8512 19.6109 40.25 19.6109Z" fill="#AD343E"/>
<path d="M39.674 42.914C39.89 42.914 40.1085 42.8638 40.3097 42.7569C41.9591 41.8898 43.4065 40.6948 44.5597 39.2481C45.713 37.8013 46.5468 36.1346 47.0082 34.354C47.0524 34.1849 47.0622 34.0089 47.037 33.8362C47.0118 33.6634 46.9521 33.4972 46.8614 33.3471C46.7706 33.197 46.6506 33.066 46.5082 32.9616C46.3658 32.8572 46.2038 32.7814 46.0315 32.7386C45.8592 32.6958 45.68 32.6868 45.5042 32.7122C45.3284 32.7375 45.1594 32.7968 45.0069 32.8864C44.8544 32.9761 44.7215 33.0944 44.6157 33.2346C44.5099 33.3749 44.4333 33.5343 44.3903 33.7036C44.022 35.1267 43.3559 36.4589 42.4345 37.6152C41.513 38.7715 40.3564 39.7266 39.0383 40.4197C38.7725 40.5586 38.5617 40.7809 38.4394 41.0511C38.3171 41.3213 38.2904 41.624 38.3635 41.9109C38.4366 42.1977 38.6054 42.4523 38.8429 42.6341C39.0803 42.8159 39.3729 42.9144 39.674 42.914Z" fill="#474747"/>
<path d="M36.4057 45.0064C37.29 45.0064 38.0069 44.3023 38.0069 43.4338C38.0069 42.5652 37.29 41.8612 36.4057 41.8612C35.5214 41.8612 34.8045 42.5652 34.8045 43.4338C34.8045 44.3023 35.5214 45.0064 36.4057 45.0064Z" fill="#474747"/>
<path d="M88.7225 13.8348C91.8514 13.8348 94.127 14.3468 95.5492 15.3708C96.9714 16.3663 97.6825 17.7174 97.6825 19.4241C97.6825 20.9032 97.2132 22.2401 96.2745 23.4348C95.3643 24.6294 94.1127 25.6392 92.5199 26.4641C90.927 27.2605 89.1208 27.8152 87.1012 28.1281C90.1163 28.3557 92.3208 29.0952 93.7145 30.3468C95.1368 31.5983 95.8479 33.0917 95.8479 34.8268C95.8479 36.3628 95.4781 37.6997 94.7385 38.8374C94.0274 39.9752 93.0461 40.9281 91.7945 41.6961C90.5714 42.4641 89.135 43.0472 87.4852 43.4454C85.8354 43.8152 84.0861 44.0001 82.2372 44.0001C81.2701 44.0001 80.2034 43.9859 79.0372 43.9574C77.8994 43.9006 76.4914 43.8721 74.8132 43.8721C74.1021 43.8721 73.3625 43.8863 72.5945 43.9148C71.8265 43.9148 71.1012 43.929 70.4185 43.9574C69.7359 43.9574 69.1528 43.9717 68.6692 44.0001L68.8399 43.1468C69.807 43.0899 70.5608 42.9761 71.1012 42.8054C71.6416 42.6348 72.0683 42.2934 72.3812 41.7814C72.6941 41.2694 72.9785 40.5014 73.2345 39.4774L78.8665 18.3148C79.0656 17.4614 79.1794 16.7788 79.2079 16.2668C79.2363 15.7263 79.0372 15.3281 78.6105 15.0721C78.2123 14.7877 77.4585 14.6454 76.3492 14.6454L76.5625 13.7921C77.0461 13.8205 77.615 13.849 78.2692 13.8774C78.9519 13.8774 79.6772 13.8917 80.4452 13.9201C81.2132 13.9201 81.9243 13.9201 82.5785 13.9201C83.8016 13.9201 84.8825 13.9059 85.8212 13.8774C86.7883 13.849 87.7554 13.8348 88.7225 13.8348ZM80.7439 28.6828L80.9145 27.9574H84.0719C85.6932 27.9574 87.0727 27.545 88.2105 26.7201C89.3767 25.8668 90.2585 24.7574 90.8559 23.3921C91.4816 22.0268 91.7945 20.5903 91.7945 19.0828C91.7945 17.6605 91.5101 16.5654 90.9412 15.7974C90.4007 15.0294 89.4479 14.6454 88.0825 14.6454C87.087 14.6454 86.3759 14.8445 85.9492 15.2428C85.5225 15.6125 85.1527 16.4232 84.8399 17.6748L79.0799 39.4774C78.9092 40.1886 78.7954 40.8143 78.7385 41.3548C78.7101 41.8952 78.8523 42.3077 79.1652 42.5921C79.4781 42.8766 80.0612 43.0188 80.9145 43.0188C82.9341 43.0188 84.5839 42.6348 85.8639 41.8668C87.1439 41.0988 88.0967 40.0463 88.7225 38.7094C89.3483 37.3441 89.6612 35.8081 89.6612 34.1014C89.6612 33.049 89.4763 32.1245 89.1065 31.3281C88.7652 30.5032 88.2105 29.8632 87.4425 29.4081C86.6745 28.9245 85.6505 28.6828 84.3705 28.6828H80.7439Z" fill="#474747"/>
<path d="M105.948 14.6454C106.033 13.593 106.46 12.7539 107.228 12.1281C107.996 11.5023 108.892 11.1894 109.916 11.1894C110.854 11.1894 111.565 11.4597 112.049 12.0001C112.561 12.5121 112.774 13.1805 112.689 14.0054C112.604 14.9725 112.177 15.7832 111.409 16.4374C110.641 17.0917 109.745 17.4188 108.721 17.4188C107.782 17.4188 107.057 17.1628 106.545 16.6508C106.061 16.1103 105.862 15.4419 105.948 14.6454ZM104.454 25.6108C104.966 24.0748 104.796 23.3068 103.942 23.3068C103.373 23.3068 102.861 23.6054 102.406 24.2028C101.951 24.7717 101.468 25.6961 100.956 26.9761L100.23 28.9814H99.4195L100.529 25.7814C100.956 24.6437 101.468 23.7619 102.065 23.1361C102.662 22.4819 103.331 22.0268 104.07 21.7708C104.81 21.5148 105.535 21.3868 106.246 21.3868C107.242 21.3868 107.996 21.5717 108.508 21.9414C109.02 22.3112 109.361 22.7948 109.532 23.3921C109.702 23.9894 109.745 24.6437 109.66 25.3548C109.574 26.0374 109.418 26.7059 109.19 27.3601L104.668 40.3734C104.412 41.1414 104.34 41.7246 104.454 42.1228C104.568 42.4926 104.838 42.6774 105.265 42.6774C105.72 42.6774 106.175 42.4357 106.63 41.9521C107.114 41.4401 107.626 40.4588 108.166 39.0081L108.892 37.0881H109.702L108.636 40.2028C108.209 41.3406 107.697 42.2366 107.1 42.8908C106.502 43.5166 105.848 43.9574 105.137 44.2134C104.426 44.4694 103.729 44.5974 103.046 44.5974C101.795 44.5974 100.884 44.3272 100.316 43.7868C99.7466 43.2179 99.4622 42.4499 99.4622 41.4828C99.4622 40.4872 99.6897 39.3494 100.145 38.0694L104.454 25.6108Z" fill="#474747"/>
<path d="M114.269 43.3601C114.496 43.4739 114.738 43.5734 114.994 43.6588C115.25 43.7157 115.606 43.7441 116.061 43.7441C117.142 43.7441 118.038 43.4028 118.749 42.7201C119.488 42.009 119.858 41.0277 119.858 39.7761C119.858 38.8659 119.659 37.9414 119.261 37.0028C118.891 36.0641 118.322 35.0259 117.554 33.8881C116.872 32.8925 116.246 31.9112 115.677 30.9441C115.136 29.977 114.866 28.8677 114.866 27.6161C114.866 26.393 115.165 25.3263 115.762 24.4161C116.36 23.4774 117.213 22.7379 118.322 22.1974C119.432 21.657 120.726 21.3868 122.205 21.3868C123.172 21.3868 124.125 21.5005 125.064 21.7281C126.002 21.9557 126.77 22.3681 127.368 22.9654C127.965 23.5628 128.264 24.4303 128.264 25.5681C128.264 25.9663 128.178 26.393 128.008 26.8481C127.837 27.2748 127.581 27.6445 127.24 27.9574C126.898 28.2703 126.443 28.4268 125.874 28.4268C125.277 28.4268 124.779 28.1992 124.381 27.7441C123.983 27.2605 123.784 26.649 123.784 25.9094C123.784 25.2552 123.897 24.6437 124.125 24.0748C124.381 23.5059 124.68 23.0081 125.021 22.5814C124.623 22.3539 124.054 22.2401 123.314 22.2401C122.29 22.2401 121.465 22.5672 120.84 23.2214C120.214 23.8757 119.901 24.8001 119.901 25.9948C119.901 26.6205 120 27.2179 120.2 27.7868C120.427 28.3272 120.726 28.8961 121.096 29.4934C121.494 30.0623 121.935 30.7308 122.418 31.4988C123.215 32.7788 123.84 33.9308 124.296 34.9548C124.751 35.9503 124.978 36.9743 124.978 38.0268C124.978 39.2783 124.637 40.4019 123.954 41.3974C123.3 42.393 122.39 43.1752 121.224 43.7441C120.057 44.313 118.692 44.5974 117.128 44.5974C116.018 44.5974 114.952 44.441 113.928 44.1281C112.932 43.8437 112.107 43.3601 111.453 42.6774C110.827 41.9948 110.514 41.0561 110.514 39.8614C110.514 39.2072 110.699 38.6099 111.069 38.0694C111.41 37.5006 111.951 37.2161 112.69 37.2161C113.43 37.2161 113.984 37.5148 114.354 38.1121C114.724 38.7094 114.909 39.449 114.909 40.3308C114.909 40.9566 114.824 41.5397 114.653 42.0801C114.511 42.5921 114.383 43.0188 114.269 43.3601Z" fill="#474747"/>
<path d="M145.068 21.9841L144.94 22.8374H130.647L130.86 21.9841H145.068ZM134.7 40.3734C134.472 41.1699 134.501 41.753 134.785 42.1228C135.098 42.4926 135.511 42.6774 136.023 42.6774C136.62 42.6774 137.217 42.393 137.815 41.8241C138.44 41.2552 139.009 40.2597 139.521 38.8374L140.161 37.0881H140.972L140.119 39.6481C139.521 41.4117 138.696 42.6774 137.644 43.4454C136.591 44.2134 135.34 44.5974 133.889 44.5974C132.609 44.5974 131.628 44.313 130.945 43.7441C130.291 43.1752 129.893 42.4072 129.751 41.4401C129.637 40.4445 129.765 39.321 130.135 38.0694L136.577 15.5841C137.601 15.5557 138.554 15.4988 139.436 15.4134C140.346 15.3281 141.199 15.1859 141.996 14.9868L134.7 40.3734Z" fill="#474747"/>
<path d="M148.92 44.0001H143.672L148.792 25.6108C149.048 24.7574 149.133 24.1601 149.048 23.8188C148.963 23.4774 148.707 23.3068 148.28 23.3068C147.739 23.3068 147.242 23.577 146.787 24.1174C146.331 24.6579 145.862 25.6108 145.379 26.9761L144.653 28.9814H143.843L144.952 25.7814C145.35 24.6437 145.848 23.7619 146.445 23.1361C147.043 22.4819 147.697 22.0268 148.408 21.7708C149.119 21.5148 149.844 21.3868 150.584 21.3868C151.494 21.3868 152.163 21.5717 152.589 21.9414C153.044 22.3112 153.329 22.7948 153.443 23.3921C153.585 23.9894 153.613 24.6437 153.528 25.3548C153.471 26.0374 153.357 26.7059 153.187 27.3601L148.92 44.0001ZM159.843 22.3681C159.217 22.3681 158.577 22.5957 157.923 23.0508C157.268 23.4774 156.586 24.1743 155.875 25.1414C155.163 26.1085 154.438 27.3885 153.699 28.9814C152.987 30.5459 152.248 32.4659 151.48 34.7414C150.712 36.9886 149.944 39.6481 149.176 42.7201L150.2 37.0454C151.082 34.0588 151.907 31.5699 152.675 29.5788C153.471 27.5592 154.239 25.9521 154.979 24.7574C155.747 23.5343 156.557 22.6668 157.411 22.1548C158.264 21.6428 159.188 21.3868 160.184 21.3868C161.208 21.3868 161.99 21.6854 162.531 22.2828C163.099 22.8801 163.384 23.6197 163.384 24.5014C163.384 25.2125 163.213 25.881 162.872 26.5068C162.531 27.1041 162.075 27.5877 161.507 27.9574C160.966 28.2988 160.34 28.4694 159.629 28.4694C158.918 28.4694 158.349 28.2845 157.923 27.9148C157.524 27.545 157.325 27.0045 157.325 26.2934C157.325 25.6677 157.467 25.0988 157.752 24.5868C158.036 24.0748 158.406 23.6481 158.861 23.3068C159.316 22.937 159.814 22.681 160.355 22.5388C160.298 22.4819 160.227 22.4392 160.141 22.4108C160.056 22.3823 159.956 22.3681 159.843 22.3681Z" fill="#474747"/>
<path d="M174.822 22.2401C174.082 22.2401 173.329 22.6241 172.561 23.3921C171.793 24.1317 171.067 25.1557 170.385 26.4641C169.702 27.7441 169.076 29.1805 168.507 30.7734C167.967 32.3663 167.54 34.0161 167.227 35.7228C166.914 37.401 166.758 39.0081 166.758 40.5441C166.758 41.6819 166.9 42.5068 167.185 43.0188C167.497 43.5023 167.953 43.7441 168.55 43.7441C169.261 43.7441 170.001 43.3743 170.769 42.6348C171.537 41.8952 172.262 40.8997 172.945 39.6481C173.656 38.3681 174.281 36.9459 174.822 35.3814C175.362 33.7886 175.789 32.1388 176.102 30.4321C176.415 28.7254 176.571 27.0614 176.571 25.4401C176.571 24.2454 176.415 23.4205 176.102 22.9654C175.817 22.4819 175.391 22.2401 174.822 22.2401ZM161.723 37.6854C161.723 36.4054 161.894 35.0259 162.235 33.5468C162.605 32.0677 163.145 30.617 163.857 29.1948C164.568 27.7441 165.449 26.4357 166.502 25.2694C167.583 24.0748 168.834 23.1361 170.257 22.4534C171.679 21.7423 173.286 21.3868 175.078 21.3868C177.126 21.3868 178.719 21.9699 179.857 23.1361C181.023 24.2739 181.606 25.9948 181.606 28.2988C181.606 29.5788 181.421 30.9583 181.051 32.4374C180.71 33.9165 180.184 35.3814 179.473 36.8321C178.761 38.2543 177.865 39.5628 176.785 40.7574C175.732 41.9237 174.495 42.8623 173.073 43.5734C171.65 44.2561 170.043 44.5974 168.251 44.5974C166.203 44.5974 164.596 44.0143 163.43 42.8481C162.292 41.6819 161.723 39.961 161.723 37.6854Z" fill="#474747"/>
<path d="M211.548 13.8348C214.676 13.8348 216.952 14.3468 218.374 15.3708C219.796 16.3663 220.508 17.7174 220.508 19.4241C220.508 20.9032 220.038 22.2401 219.1 23.4348C218.189 24.6294 216.938 25.6392 215.345 26.4641C213.752 27.2605 211.946 27.8152 209.926 28.1281C212.941 28.3557 215.146 29.0952 216.54 30.3468C217.962 31.5983 218.673 33.0917 218.673 34.8268C218.673 36.3628 218.303 37.6997 217.564 38.8374C216.852 39.9752 215.871 40.9281 214.62 41.6961C213.396 42.4641 211.96 43.0472 210.31 43.4454C208.66 43.8152 206.911 44.0001 205.062 44.0001C204.095 44.0001 203.028 43.9859 201.862 43.9574C200.724 43.9006 199.316 43.8721 197.638 43.8721C196.927 43.8721 196.188 43.8863 195.42 43.9148C194.652 43.9148 193.926 43.929 193.244 43.9574C192.561 43.9574 191.978 43.9717 191.494 44.0001L191.665 43.1468C192.632 43.0899 193.386 42.9761 193.926 42.8054C194.467 42.6348 194.893 42.2934 195.206 41.7814C195.519 41.2694 195.804 40.5014 196.06 39.4774L201.692 18.3148C201.891 17.4614 202.004 16.7788 202.033 16.2668C202.061 15.7263 201.862 15.3281 201.436 15.0721C201.037 14.7877 200.284 14.6454 199.174 14.6454L199.388 13.7921C199.871 13.8205 200.44 13.849 201.094 13.8774C201.777 13.8774 202.502 13.8917 203.27 13.9201C204.038 13.9201 204.749 13.9201 205.404 13.9201C206.627 13.9201 207.708 13.9059 208.646 13.8774C209.613 13.849 210.58 13.8348 211.548 13.8348ZM203.569 28.6828L203.74 27.9574H206.897C208.518 27.9574 209.898 27.545 211.036 26.7201C212.202 25.8668 213.084 24.7574 213.681 23.3921C214.307 22.0268 214.62 20.5903 214.62 19.0828C214.62 17.6605 214.335 16.5654 213.766 15.7974C213.226 15.0294 212.273 14.6454 210.908 14.6454C209.912 14.6454 209.201 14.8445 208.774 15.2428C208.348 15.6125 207.978 16.4232 207.665 17.6748L201.905 39.4774C201.734 40.1886 201.62 40.8143 201.564 41.3548C201.535 41.8952 201.677 42.3077 201.99 42.5921C202.303 42.8766 202.886 43.0188 203.74 43.0188C205.759 43.0188 207.409 42.6348 208.689 41.8668C209.969 41.0988 210.922 40.0463 211.548 38.7094C212.173 37.3441 212.486 35.8081 212.486 34.1014C212.486 33.049 212.301 32.1245 211.932 31.3281C211.59 30.5032 211.036 29.8632 210.268 29.4081C209.5 28.9245 208.476 28.6828 207.196 28.6828H203.569Z" fill="#474747"/>
<path d="M226.554 40.3734C226.326 41.1414 226.269 41.7246 226.383 42.1228C226.525 42.4926 226.81 42.6774 227.237 42.6774C227.635 42.6774 228.061 42.4357 228.517 41.9521C229 41.4401 229.512 40.4588 230.053 39.0081L230.735 37.0881H231.546L230.479 40.2028C230.081 41.3406 229.583 42.2366 228.986 42.8908C228.389 43.5166 227.749 43.9574 227.066 44.2134C226.383 44.4694 225.686 44.5974 224.975 44.5974C224.065 44.5974 223.34 44.4268 222.799 44.0854C222.259 43.7441 221.889 43.2748 221.69 42.6774C221.491 42.0801 221.42 41.3974 221.477 40.6294C221.533 39.833 221.704 38.9797 221.989 38.0694L228.773 15.5414C229.057 14.5743 229.029 13.8632 228.687 13.4081C228.346 12.953 227.478 12.7254 226.085 12.7254L226.383 11.8294C228.232 11.801 229.882 11.6445 231.333 11.3601C232.783 11.0472 234.177 10.6205 235.514 10.0801L226.554 40.3734Z" fill="#474747"/>
<path d="M240.873 14.6454C240.958 13.593 241.385 12.7539 242.153 12.1281C242.921 11.5023 243.817 11.1894 244.841 11.1894C245.779 11.1894 246.49 11.4597 246.974 12.0001C247.486 12.5121 247.699 13.1805 247.614 14.0054C247.529 14.9725 247.102 15.7832 246.334 16.4374C245.566 17.0917 244.67 17.4188 243.646 17.4188C242.707 17.4188 241.982 17.1628 241.47 16.6508C240.986 16.1103 240.787 15.4419 240.873 14.6454ZM239.379 25.6108C239.891 24.0748 239.721 23.3068 238.867 23.3068C238.298 23.3068 237.786 23.6054 237.331 24.2028C236.876 24.7717 236.393 25.6961 235.881 26.9761L235.155 28.9814H234.345L235.454 25.7814C235.881 24.6437 236.393 23.7619 236.99 23.1361C237.587 22.4819 238.256 22.0268 238.995 21.7708C239.735 21.5148 240.46 21.3868 241.171 21.3868C242.167 21.3868 242.921 21.5717 243.433 21.9414C243.945 22.3112 244.286 22.7948 244.457 23.3921C244.627 23.9894 244.67 24.6437 244.585 25.3548C244.499 26.0374 244.343 26.7059 244.115 27.3601L239.593 40.3734C239.337 41.1414 239.265 41.7246 239.379 42.1228C239.493 42.4926 239.763 42.6774 240.19 42.6774C240.645 42.6774 241.1 42.4357 241.555 41.9521C242.039 41.4401 242.551 40.4588 243.091 39.0081L243.817 37.0881H244.627L243.561 40.2028C243.134 41.3406 242.622 42.2366 242.025 42.8908C241.427 43.5166 240.773 43.9574 240.062 44.2134C239.351 44.4694 238.654 44.5974 237.971 44.5974C236.72 44.5974 235.809 44.3272 235.241 43.7868C234.672 43.2179 234.387 42.4499 234.387 41.4828C234.387 40.4872 234.615 39.3494 235.07 38.0694L239.379 25.6108Z" fill="#474747"/>
<path d="M249.194 43.3601C249.421 43.4739 249.663 43.5734 249.919 43.6588C250.175 43.7157 250.531 43.7441 250.986 43.7441C252.067 43.7441 252.963 43.4028 253.674 42.7201C254.413 42.009 254.783 41.0277 254.783 39.7761C254.783 38.8659 254.584 37.9414 254.186 37.0028C253.816 36.0641 253.247 35.0259 252.479 33.8881C251.797 32.8925 251.171 31.9112 250.602 30.9441C250.061 29.977 249.791 28.8677 249.791 27.6161C249.791 26.393 250.09 25.3263 250.687 24.4161C251.285 23.4774 252.138 22.7379 253.247 22.1974C254.357 21.657 255.651 21.3868 257.13 21.3868C258.097 21.3868 259.05 21.5005 259.989 21.7281C260.927 21.9557 261.695 22.3681 262.293 22.9654C262.89 23.5628 263.189 24.4303 263.189 25.5681C263.189 25.9663 263.103 26.393 262.933 26.8481C262.762 27.2748 262.506 27.6445 262.165 27.9574C261.823 28.2703 261.368 28.4268 260.799 28.4268C260.202 28.4268 259.704 28.1992 259.306 27.7441C258.908 27.2605 258.709 26.649 258.709 25.9094C258.709 25.2552 258.822 24.6437 259.05 24.0748C259.306 23.5059 259.605 23.0081 259.946 22.5814C259.548 22.3539 258.979 22.2401 258.239 22.2401C257.215 22.2401 256.39 22.5672 255.765 23.2214C255.139 23.8757 254.826 24.8001 254.826 25.9948C254.826 26.6205 254.925 27.2179 255.125 27.7868C255.352 28.3272 255.651 28.8961 256.021 29.4934C256.419 30.0623 256.86 30.7308 257.343 31.4988C258.14 32.7788 258.765 33.9308 259.221 34.9548C259.676 35.9503 259.903 36.9743 259.903 38.0268C259.903 39.2783 259.562 40.4019 258.879 41.3974C258.225 42.393 257.315 43.1752 256.149 43.7441C254.982 44.313 253.617 44.5974 252.053 44.5974C250.943 44.5974 249.877 44.441 248.853 44.1281C247.857 43.8437 247.032 43.3601 246.378 42.6774C245.752 41.9948 245.439 41.0561 245.439 39.8614C245.439 39.2072 245.624 38.6099 245.994 38.0694C246.335 37.5006 246.876 37.2161 247.615 37.2161C248.355 37.2161 248.909 37.5148 249.279 38.1121C249.649 38.7094 249.834 39.449 249.834 40.3308C249.834 40.9566 249.749 41.5397 249.578 42.0801C249.436 42.5921 249.308 43.0188 249.194 43.3601Z" fill="#474747"/>
<path d="M266.169 43.3601C266.396 43.4739 266.638 43.5734 266.894 43.6588C267.15 43.7157 267.506 43.7441 267.961 43.7441C269.042 43.7441 269.938 43.4028 270.649 42.7201C271.388 42.009 271.758 41.0277 271.758 39.7761C271.758 38.8659 271.559 37.9414 271.161 37.0028C270.791 36.0641 270.222 35.0259 269.454 33.8881C268.772 32.8925 268.146 31.9112 267.577 30.9441C267.036 29.977 266.766 28.8677 266.766 27.6161C266.766 26.393 267.065 25.3263 267.662 24.4161C268.26 23.4774 269.113 22.7379 270.222 22.1974C271.332 21.657 272.626 21.3868 274.105 21.3868C275.072 21.3868 276.025 21.5005 276.964 21.7281C277.902 21.9557 278.67 22.3681 279.268 22.9654C279.865 23.5628 280.164 24.4303 280.164 25.5681C280.164 25.9663 280.078 26.393 279.908 26.8481C279.737 27.2748 279.481 27.6445 279.14 27.9574C278.798 28.2703 278.343 28.4268 277.774 28.4268C277.177 28.4268 276.679 28.1992 276.281 27.7441C275.883 27.2605 275.684 26.649 275.684 25.9094C275.684 25.2552 275.797 24.6437 276.025 24.0748C276.281 23.5059 276.58 23.0081 276.921 22.5814C276.523 22.3539 275.954 22.2401 275.214 22.2401C274.19 22.2401 273.365 22.5672 272.74 23.2214C272.114 23.8757 271.801 24.8001 271.801 25.9948C271.801 26.6205 271.9 27.2179 272.1 27.7868C272.327 28.3272 272.626 28.8961 272.996 29.4934C273.394 30.0623 273.835 30.7308 274.318 31.4988C275.115 32.7788 275.74 33.9308 276.196 34.9548C276.651 35.9503 276.878 36.9743 276.878 38.0268C276.878 39.2783 276.537 40.4019 275.854 41.3974C275.2 42.393 274.29 43.1752 273.124 43.7441C271.957 44.313 270.592 44.5974 269.028 44.5974C267.918 44.5974 266.852 44.441 265.828 44.1281C264.832 43.8437 264.007 43.3601 263.353 42.6774C262.727 41.9948 262.414 41.0561 262.414 39.8614C262.414 39.2072 262.599 38.6099 262.969 38.0694C263.31 37.5006 263.851 37.2161 264.59 37.2161C265.33 37.2161 265.884 37.5148 266.254 38.1121C266.624 38.7094 266.809 39.449 266.809 40.3308C266.809 40.9566 266.724 41.5397 266.553 42.0801C266.411 42.5921 266.283 43.0188 266.169 43.3601Z" fill="#474747"/>
</svg>
